<svg width="100" height="100" viewBox="0 0 100 100" fill="none" xmlns="http://www.w3.org/2000/svg">
  <rect width="100" height="100" rx="20" fill="url(#paint0_linear)" />
  <path d="M65.9091 34.0909C65.9091 32.4513 67.2422 31.1182 68.8818 31.1182C70.5214 31.1182 71.8545 32.4513 71.8545 34.0909C71.8545 35.7305 70.5214 37.0636 68.8818 37.0636C67.2422 37.0636 65.9091 35.7305 65.9091 34.0909Z" fill="white"/>
  <path d="M31.1182 34.0909C31.1182 32.4513 32.4513 31.1182 34.0909 31.1182C35.7305 31.1182 37.0636 32.4513 37.0636 34.0909C37.0636 35.7305 35.7305 37.0636 34.0909 37.0636C32.4513 37.0636 31.1182 35.7305 31.1182 34.0909Z" fill="white"/>
  <path d="M65.9091 68.8818C65.9091 67.2422 67.2422 65.9091 68.8818 65.9091C70.5214 65.9091 71.8545 67.2422 71.8545 68.8818C71.8545 70.5214 70.5214 71.8545 68.8818 71.8545C67.2422 71.8545 65.9091 70.5214 65.9091 68.8818Z" fill="white"/>
  <path d="M31.1182 68.8818C31.1182 67.2422 32.4513 65.9091 34.0909 65.9091C35.7305 65.9091 37.0636 67.2422 37.0636 68.8818C37.0636 70.5214 35.7305 71.8545 34.0909 71.8545C32.4513 71.8545 31.1182 70.5214 31.1182 68.8818Z" fill="white"/>
  <path fill-rule="evenodd" clip-rule="evenodd" d="M44.0659 30.0245C45.0591 29.0313 46.6125 29.0313 47.6057 30.0245L69.9755 52.3943C70.9687 53.3875 70.9687 54.9409 69.9755 55.9341C68.9823 56.9273 67.4289 56.9273 66.4357 55.9341L44.0659 33.5643C43.0727 32.5711 43.0727 31.0177 44.0659 30.0245Z" fill="white"/>
  <path fill-rule="evenodd" clip-rule="evenodd" d="M33.5643 52.3943C32.5711 51.4011 32.5711 49.8477 33.5643 48.8545L55.9341 26.4847C56.9273 25.4915 58.4807 25.4915 59.4739 26.4847C60.4671 27.4779 60.4671 29.0313 59.4739 30.0245L37.1041 52.3943C36.1109 53.3875 34.5575 53.3875 33.5643 52.3943Z" fill="white"/>
  <path fill-rule="evenodd" clip-rule="evenodd" d="M52.3943 69.9755C51.4011 70.9687 49.8477 70.9687 48.8545 69.9755L26.4847 47.6057C25.4915 46.6125 25.4915 45.0591 26.4847 44.0659C27.4779 43.0727 29.0313 43.0727 30.0245 44.0659L52.3943 66.4357C53.3875 67.4289 53.3875 68.9823 52.3943 69.9755Z" fill="white"/>
  <path fill-rule="evenodd" clip-rule="evenodd" d="M66.4357 44.0659C67.4289 43.0727 68.9823 43.0727 69.9755 44.0659C70.9687 45.0591 70.9687 46.6125 69.9755 47.6057L47.6057 69.9755C46.6125 70.9687 45.0591 70.9687 44.0659 69.9755C43.0727 68.9823 43.0727 67.4289 44.0659 66.4357L66.4357 44.0659Z" fill="white"/>
  <defs>
    <linearGradient id="paint0_linear" x1="0" y1="0" x2="100" y2="100" gradientUnits="userSpaceOnUse">
      <stop stop-color="#0A84FF"/>
      <stop offset="1" stop-color="#0074E0"/>
    </linearGradient>
  </defs>
</svg>